<?xml version="1.0" encoding="utf-8"?>
<svg id="Layer_4" style="enable-background:new 0 0 100 100;" version="1.1" viewBox="0 0 100 100" xmlns="http://www.w3.org/2000/svg" xmlns:bx="https://boxy-svg.com">
  <defs>
    <style bx:fonts="Fredoka One">@import url(https://fonts.googleapis.com/css2?family=Fredoka+One%3Aital%2Cwght%400%2C400&amp;display=swap);</style>
  </defs>
  <style type="text/css">
	.st0{fill:#00BA6E;}
	.st1{fill:#0056D5;}
	.st2{fill:#00B7FF;}
	.st3{fill:#99B2FB;}
	.st4{fill:#FFFFFF;}
	.st5{fill:#95EDFF;}
	.st6{fill:#B6FFC2;}
</style>
  <g>
    <g>
      <g>
        <path class="st1" d="M23.7,68.5h-5c-0.9,0-1.7-0.8-1.7-1.7c0-0.9,0.8-1.7,1.7-1.7h5c0.9,0,1.7,0.8,1.7,1.7     C25.4,67.7,24.6,68.5,23.7,68.5z"/>
      </g>
      <g>
        <path class="st1" d="M23.3,46.6c-0.9,0-1.7-0.8-1.7-1.7c0-0.9,0.8-1.7,1.7-1.7c0.9,0,1.7-0.8,1.7-1.7c0-0.9-0.8-1.7-1.7-1.7H17     c-0.9,0-1.7-0.8-1.7-1.7c0-0.9,0.8-1.7,1.7-1.7h6.4c2.8,0,5,2.3,5,5C28.4,44.4,26.1,46.6,23.3,46.6z"/>
      </g>
      <g>
        <path class="st2" d="M67.5,90.3c-0.8,0-1.5-0.6-1.7-1.5l-2.1-15.8c-0.1-0.5,0.1-0.9,0.3-1.2c0.3-0.4,0.7-0.6,1.1-0.7     c0.9-0.1,1.8,0.5,1.9,1.4l2.1,15.8c0.1,0.5,0,0.9-0.3,1.3c-0.3,0.4-0.7,0.6-1.1,0.6C67.6,90.3,67.6,90.3,67.5,90.3z"/>
      </g>
      <g>
        <path class="st2" d="M34.3,90.3c-0.9,0-1.6-0.7-1.7-1.5L31.9,82l-8,0.5c-0.3,0.1-0.7,0.1-1,0.1c-2.7,0-5-2.2-5-5v-0.1l0.3-5.4     l-2-4.5c-0.2-0.4-0.2-0.7-0.1-1.1l1.3-5.3H13c-1.8,0-3.4-1.5-3.4-3.4c0-0.5,0.1-1,0.3-1.4l4.5-11.9c0-1.1-0.1-4.1-0.1-4.4     c0-3.1,0.4-6.1,1.2-9c3.5-13,14.9-21.4,28.9-21.4h0.1c0.7,0,1.3,0,1.8,0c4.6,0.2,9,1.4,13.2,3.6c0.4,0.2,0.7,0.6,0.8,1     c0.1,0.4,0.1,0.9-0.1,1.3c-0.4,0.8-1.5,1.1-2.3,0.7c-3.7-1.9-7.7-3-11.8-3.2c-0.5,0-1.1,0-1.7,0c-12.7,0-22.5,7.3-25.8,18.9     c-0.7,2.6-1.1,5.4-1.1,8.1c0,0.4,0,4.4,0.1,4.6l-0.1,0.6L13,57.9l6.6,0c0.5,0,1,0.2,1.3,0.6c0.3,0.4,0.4,0.9,0.3,1.4l-1.7,6.8     l2,4.3c0.1,0.3,0.2,0.5,0.2,0.8l-0.4,5.7c0,1,1,1.8,2,1.6l0.3,0l9.7-0.7c0.9-0.1,1.7,0.6,1.8,1.5l0.9,8.4     c0.1,0.9-0.6,1.7-1.5,1.8C34.4,90.3,34.3,90.3,34.3,90.3z M64.4,20.2c-0.4,0-0.8-0.2-1.1-0.4c-0.4-0.3-0.6-0.7-0.6-1.1     c-0.1-0.4,0.1-0.9,0.4-1.2c0.6-0.7,1.7-0.8,2.4-0.2c0,0,0,0,0,0c0.7,0.6,0.8,1.7,0.2,2.4C65.4,20,64.9,20.2,64.4,20.2z"/>
      </g>
      <g>
        <path class="st2" d="M33.4,81.9c-0.9,0-1.7-0.8-1.7-1.7c0-0.9,0.8-1.7,1.7-1.7h0.7c3.2,0,6.2-1.6,8-4.3c0.5-0.8,1.6-1,2.3-0.5     c0.8,0.5,1,1.6,0.5,2.3c-2.4,3.6-6.5,5.8-10.8,5.8H33.4L33.4,81.9z"/>
      </g>
    </g>
    <g>
      <path class="st6" d="M40,33.2c0,1.9-1.5,3.4-3.4,3.4c-1.9,0-3.4-1.5-3.4-3.4c0-1.9,1.5-3.4,3.4-3.4C38.5,29.8,40,31.3,40,33.2z"/>
      <path class="st0" d="M36.7,38.2c-2.8,0-5-2.3-5-5s2.3-5,5-5c2.8,0,5,2.3,5,5S39.5,38.2,36.7,38.2z M36.7,31.5    c-0.9,0-1.7,0.8-1.7,1.7c0,0.9,0.8,1.7,1.7,1.7s1.7-0.8,1.7-1.7C38.4,32.3,37.6,31.5,36.7,31.5z"/>
    </g>
    <g>
      <path class="st1" d="M55,45c-0.9,0-1.7-0.8-1.7-1.7v-3.4c0-0.9,0.8-1.7,1.7-1.7c0.9,0,1.7,0.8,1.7,1.7v3.4C56.7,44.2,56,45,55,45z    "/>
    </g>
    <g>
      <path class="st1" d="M61.8,45c-0.9,0-1.7-0.8-1.7-1.7v-3.4c0-0.9,0.8-1.7,1.7-1.7c0.9,0,1.7,0.8,1.7,1.7v3.4    C63.4,44.2,62.7,45,61.8,45z"/>
    </g>
    <g>
      <path class="st1" d="M55,31.5c-0.9,0-1.7-0.8-1.7-1.7v-3.4c0-0.9,0.8-1.7,1.7-1.7c0.9,0,1.7,0.8,1.7,1.7v3.4    C56.7,30.8,56,31.5,55,31.5z"/>
    </g>
    <g>
      <path class="st1" d="M61.8,31.5c-0.9,0-1.7-0.8-1.7-1.7v-3.4c0-0.9,0.8-1.7,1.7-1.7c0.9,0,1.7,0.8,1.7,1.7v3.4    C63.4,30.8,62.7,31.5,61.8,31.5z"/>
    </g>
    <g>
      <path class="st1" d="M66.8,39.9h-3.4c-0.9,0-1.7-0.8-1.7-1.7c0-0.9,0.8-1.7,1.7-1.7h3.4c0.9,0,1.7,0.8,1.7,1.7    C68.5,39.2,67.7,39.9,66.8,39.9z"/>
    </g>
    <g>
      <path class="st1" d="M66.8,33.2h-3.4c-0.9,0-1.7-0.8-1.7-1.7c0-0.9,0.8-1.7,1.7-1.7h3.4c0.9,0,1.7,0.8,1.7,1.7    C68.5,32.4,67.7,33.2,66.8,33.2z"/>
    </g>
    <g>
      <path class="st1" d="M53.4,39.9H50c-0.9,0-1.7-0.8-1.7-1.7c0-0.9,0.8-1.7,1.7-1.7h3.4c0.9,0,1.7,0.8,1.7,1.7    C55,39.2,54.3,39.9,53.4,39.9z"/>
    </g>
    <g>
      <path class="st1" d="M53.4,33.2H50c-0.9,0-1.7-0.8-1.7-1.7c0-0.9,0.8-1.7,1.7-1.7h3.4c0.9,0,1.7,0.8,1.7,1.7    C55,32.4,54.3,33.2,53.4,33.2z"/>
    </g>
    <g>
      <rect class="st5" height="10.1" width="10.1" x="53.4" y="29.8"/>
      <path class="st2" d="M63.4,41.6H53.4c-0.9,0-1.7-0.8-1.7-1.7V29.8c0-0.9,0.8-1.7,1.7-1.7h10.1c0.9,0,1.7,0.8,1.7,1.7v10.1    C65.1,40.8,64.4,41.6,63.4,41.6z M55,38.2h6.7v-6.7H55V38.2z"/>
    </g>
    <g>
      <path class="st1" d="M88.6,33.2h-8.4c-0.9,0-1.7-0.8-1.7-1.7c0-0.9,0.8-1.7,1.7-1.7h8.4c0.9,0,1.7,0.8,1.7,1.7    C90.3,32.4,89.6,33.2,88.6,33.2z M73.5,33.2c-0.9,0-1.7-0.8-1.7-1.7c0-0.9,0.8-1.7,1.7-1.7c0.9,0,1.7,0.8,1.7,1.7    C75.2,32.4,74.4,33.2,73.5,33.2z"/>
    </g>
    <g>
      <path class="st1" d="M88.6,39.9H73.5c-0.9,0-1.7-0.8-1.7-1.7c0-0.9,0.8-1.7,1.7-1.7h15.1c0.9,0,1.7,0.8,1.7,1.7    C90.3,39.2,89.6,39.9,88.6,39.9z"/>
    </g>
    <g>
      <path class="st1" d="M88.6,46.6c-0.9,0-1.7-0.8-1.7-1.7c0-0.9,0.8-1.7,1.7-1.7c0.9,0,1.7,0.8,1.7,1.7    C90.3,45.9,89.6,46.6,88.6,46.6z M81.9,46.6H68.5c-0.9,0-1.7-0.8-1.7-1.7c0-0.9,0.8-1.7,1.7-1.7h13.4c0.9,0,1.7,0.8,1.7,1.7    C83.6,45.9,82.8,46.6,81.9,46.6z"/>
    </g>
    <g>
      <path class="st0" d="M88.6,53.4H55c-0.9,0-1.7-0.8-1.7-1.7c0-0.9,0.8-1.7,1.7-1.7h33.6c0.9,0,1.7,0.8,1.7,1.7    C90.3,52.6,89.6,53.4,88.6,53.4z"/>
    </g>
    <g>
      <path class="st1" d="M88.6,60.1h-8.4c-0.9,0-1.7-0.8-1.7-1.7c0-0.9,0.8-1.7,1.7-1.7h8.4c0.9,0,1.7,0.8,1.7,1.7    C90.3,59.3,89.6,60.1,88.6,60.1z M73.5,60.1c-0.9,0-1.7-0.8-1.7-1.7c0-0.9,0.8-1.7,1.7-1.7c0.9,0,1.7,0.8,1.7,1.7    C75.2,59.3,74.4,60.1,73.5,60.1z M66.8,60.1H53.4c-0.9,0-1.7-0.8-1.7-1.7c0-0.9,0.8-1.7,1.7-1.7h13.4c0.9,0,1.7,0.8,1.7,1.7    C68.5,59.3,67.7,60.1,66.8,60.1z"/>
    </g>
    <g>
      <path class="st0" d="M88.6,73.5h-3.4c-0.9,0-1.7-0.8-1.7-1.7v-5H51.7c-0.9,0-1.7-0.8-1.7-1.7c0-0.9,0.8-1.7,1.7-1.7h33.6    c0.9,0,1.7,0.8,1.7,1.7v5h1.7c0.9,0,1.7,0.8,1.7,1.7C90.3,72.8,89.6,73.5,88.6,73.5z"/>
    </g>
    <g>
      <path class="st1" d="M88.6,80.2H78.6c-0.9,0-1.7-0.8-1.7-1.7v-5h-5c-0.9,0-1.7-0.8-1.7-1.7c0-0.9,0.8-1.7,1.7-1.7h6.7    c0.9,0,1.7,0.8,1.7,1.7v5h8.4c0.9,0,1.7,0.8,1.7,1.7C90.3,79.5,89.6,80.2,88.6,80.2z"/>
    </g>
    <g>
      <path class="st1" d="M71.8,19.8c-0.9,0-1.7-0.8-1.7-1.7s0.8-1.7,1.7-1.7h5v-5c0-0.4,0.2-0.9,0.5-1.2c0.3-0.3,0.7-0.5,1.2-0.5h3.4    c0.9,0,1.7,0.8,1.7,1.7c0,0.9-0.8,1.7-1.7,1.7h-1.7v5c0,0.5-0.2,0.9-0.5,1.2c-0.3,0.3-0.7,0.5-1.2,0.5H71.8    C71.9,19.8,71.9,19.8,71.8,19.8z M88.6,13c-0.9,0-1.7-0.8-1.7-1.7c0-0.9,0.8-1.7,1.7-1.7c0.9,0,1.7,0.8,1.7,1.7    C90.3,12.3,89.6,13,88.6,13z"/>
    </g>
    <g>
      <path class="st0" d="M85.3,26.5H68.5c-0.9,0-1.7-0.8-1.7-1.7c0-0.9,0.8-1.7,1.7-1.7h15.1v-5c0-0.9,0.8-1.7,1.7-1.7h3.4    c0.9,0,1.7,0.8,1.7,1.7c0,0.9-0.8,1.7-1.7,1.7H87v5C87,25.7,86.2,26.5,85.3,26.5z"/>
    </g>
  </g>
  <text style="fill: rgb(0, 86, 213); font-family: &quot;Fredoka One&quot;; font-size: 50px; letter-spacing: 0.9px; paint-order: fill; stroke: rgb(2, 186, 110); stroke-width: 1.5px; text-transform: capitalize; word-spacing: 5px; white-space: pre;" x="15.576" y="85.906">TV</text>
</svg>